<svg xmlns="http://www.w3.org/2000/svg" viewBox="0 0 1024 1024">
    <path fill="#fff" d="M680 47 Q780 47 828 130 L1000 427 Q1049 512 1000 597 L828 894 Q780 977 680 977 H344 Q243 977 196 894 L24 597 Q-25 512 24 427 L196 130 Q243 47 344 47 Z" />
    <path fill="#177bba" d="M179 737 L79 564 Q49 512 79 460 L250 163 Q280 111 340 111 H540 Z" />
    <path fill="#ffc62e" d="M364 544 H520 Q533 595 564 646 L410 913 H340 Q280 913 248 857 L216 800 Z" />
    <path fill="#666870" d="M401 480 L614 111 H685 Q743 111 772 161 L808 223 L748 328 C640 275 510 360 511 480 Z" />
    <path fill="#85c124" d="M605 703 Q635 740 660 765 Q677 783 694 766 Q841 623 846 480 Q845 415 800 366 L845 287 945 460 Q975 512 945 564 L776 857 Q743 913 684 913 H484 Z" />
    <path  fill="#ff4c52"  d="M678 704 Q571 590 566 480 A112 112 0 0 1 678 368 A112 112 0 0 1 790 480 Q786 590 678 704 Z M678 480 m55 0 a55 55 0 1 0 -110 0 a55 55 0 1 0 110 0 Z" />
</svg>
